# xmcd
#
# Track frame offsets:
#	150
#	12713
#	28894
#	39784
#	59241
#	73569
#	93556
#	107184
#	122876
#	143542
#	153356
#	173000
#
# Disc length: 2565 seconds
#
# Revision: 1
# Processed by: cddbd v1.5.2PL0 Copyright (c) Steve Scherf et al.
# Submitted via: audiograbber 1.83.01
#
DISCID=a60a030c
DTITLE=Downhome Bluegrass - Standin' On Solid Ground
DYEAR=2004
DGENRE=Bluegrass
TTITLE0=Til The End of the World Rolls Round
TTITLE1=Where the Roses Never Fade
TTITLE2=Sugarloaf Mountain
TTITLE3=Just Outside
TTITLE4=Time Waits For No One
TTITLE5=Far Side Banks of Jordan
TTITLE6=Cherokee Lady
TTITLE7=Gone
TTITLE8=Standin' On Solid Ground
TTITLE9=Oklahoma Redbird
TTITLE10=Memories of Mama
TTITLE11=Lilly Dale
EXTD=
EXTT0=
EXTT1=
EXTT2=
EXTT3=
EXTT4=
EXTT5=
EXTT6=
EXTT7=
EXTT8=
EXTT9=
EXTT10=
EXTT11=
PLAYORDER=
